<svg width="146" height="146" viewBox="0 0 146 146" fill="none" xmlns="http://www.w3.org/2000/svg">
<path d="M109.046 57.6639C103.658 56.2549 97.932 57.035 93.1176 59.8338C88.3032 62.6326 84.7919 67.2227 83.3505 72.6017C81.9091 77.9808 82.6547 83.7116 85.4244 88.5428C88.1942 93.3739 92.7631 96.9128 98.1333 98.3866L89.284 131.43L68.0642 125.744C38.5683 117.843 21.0675 87.5235 28.9682 58.0277C36.8718 28.5347 67.1883 11.031 96.6842 18.9317L117.904 24.6178L109.049 57.6639H109.046Z" fill="white"/>
<path d="M68.0613 125.744C38.5654 117.843 21.0646 87.5235 28.9653 58.0277C36.8689 28.5347 67.1854 11.031 96.6813 18.9317L87.829 51.9778C85.1491 51.2423 82.3503 51.044 79.5935 51.3942C76.8367 51.7444 74.1763 52.6363 71.7655 54.0185C69.3546 55.4006 67.2409 57.2459 65.5458 59.448C63.8507 61.6501 62.6077 64.1656 61.8884 66.8499C61.1691 69.5341 60.9877 72.3341 61.3545 75.0888C61.7213 77.8434 62.6292 80.4983 64.0258 82.9008C65.4225 85.3033 67.2804 87.4059 69.4927 89.0877C71.705 90.7695 74.2279 91.9973 76.9165 92.7004L68.0642 125.744H68.0613Z" fill="#89DCFF"/>
<path d="M109.052 57.6639C106.372 56.9284 103.573 56.7301 100.816 57.0803C98.0594 57.4306 95.399 58.3224 92.9882 59.7046C90.5773 61.0868 88.4636 62.932 86.7685 65.1341C85.0734 67.3362 83.8304 69.8518 83.1111 72.536C82.3918 75.2203 82.2104 78.0203 82.5772 80.7749C82.944 83.5295 83.8519 86.1845 85.2485 88.587C86.6452 90.9894 88.5031 93.0921 90.7154 94.7739C92.9277 96.4557 95.4506 97.6834 98.1392 98.3866L76.9194 92.7004C71.5491 91.2266 66.9802 87.6877 64.2104 82.8566C61.4407 78.0254 60.6951 72.2946 62.1365 66.9156C63.5779 61.5365 67.0893 56.9464 71.9037 54.1476C76.718 51.3488 82.4443 50.5687 87.8319 51.9777L109.052 57.6639Z" fill="#EA563D"/>
<path d="M96.6842 18.9346L87.829 51.9777L109.049 57.6639L117.904 24.6149L96.6842 18.9317V18.9346Z" fill="#FFCE51"/>
<path d="M76.9164 92.7004L68.0642 125.747L89.284 131.43L98.1392 98.3866L76.9194 92.7004H76.9164Z" fill="#FFCE51"/>
<path d="M109.046 57.6639C103.658 56.2549 97.932 57.035 93.1176 59.8338C88.3032 62.6326 84.7919 67.2227 83.3505 72.6017C81.9091 77.9808 82.6547 83.7116 85.4244 88.5428C88.1942 93.3739 92.7631 96.9128 98.1333 98.3866L89.284 131.43L68.0642 125.744C38.5683 117.843 21.0675 87.5235 28.9682 58.0277C36.8718 28.5347 67.1883 11.031 96.6842 18.9317L117.904 24.6178L109.049 57.6639H109.046Z" stroke="black" stroke-width="5.06613" stroke-linecap="round" stroke-linejoin="round"/>
<path d="M109.049 57.6639L87.829 51.9777" stroke="black" stroke-width="5.06613" stroke-linecap="round" stroke-linejoin="round"/>
<path d="M98.1392 98.3866L76.9194 92.7004" stroke="black" stroke-width="5.06613" stroke-linecap="round" stroke-linejoin="round"/>
<path d="M68.0613 125.744C38.5654 117.843 21.0646 87.5235 28.9653 58.0277C36.8689 28.5347 67.1854 11.031 96.6813 18.9317L87.829 51.9778C85.1491 51.2423 82.3503 51.044 79.5935 51.3942C76.8367 51.7444 74.1763 52.6363 71.7655 54.0185C69.3546 55.4006 67.2409 57.2459 65.5458 59.448C63.8507 61.6501 62.6077 64.1656 61.8884 66.8499C61.1691 69.5341 60.9877 72.3341 61.3545 75.0888C61.7213 77.8434 62.6292 80.4983 64.0258 82.9008C65.4225 85.3033 67.2804 87.4059 69.4927 89.0877C71.705 90.7695 74.2279 91.9973 76.9165 92.7004L68.0642 125.744H68.0613Z" stroke="black" stroke-width="5.06613" stroke-linecap="round" stroke-linejoin="round"/>
<path d="M109.052 57.6639C106.372 56.9284 103.573 56.7301 100.816 57.0803C98.0594 57.4306 95.399 58.3224 92.9882 59.7046C90.5773 61.0868 88.4636 62.932 86.7685 65.1341C85.0734 67.3362 83.8304 69.8518 83.1111 72.536C82.3918 75.2203 82.2104 78.0203 82.5772 80.7749C82.944 83.5295 83.8519 86.1845 85.2485 88.587C86.6452 90.9894 88.5031 93.0921 90.7154 94.7739C92.9277 96.4557 95.4506 97.6835 98.1392 98.3866L76.9194 92.7004C71.5491 91.2266 66.9802 87.6877 64.2104 82.8566C61.4407 78.0254 60.6951 72.2946 62.1365 66.9156C63.5779 61.5365 67.0893 56.9464 71.9037 54.1476C76.718 51.3488 82.4443 50.5687 87.8319 51.9777L109.052 57.6639Z" stroke="black" stroke-width="5.06613" stroke-linecap="round" stroke-linejoin="round"/>
<path d="M96.6842 18.9346L87.829 51.9777L109.049 57.6639L117.904 24.6149L96.6842 18.9317V18.9346Z" stroke="black" stroke-width="5.06613" stroke-linecap="round" stroke-linejoin="round"/>
<path d="M76.9164 92.7004L68.0642 125.747L89.284 131.43L98.1391 98.3866L76.9194 92.7004H76.9164Z" stroke="black" stroke-width="5.06613" stroke-linecap="round" stroke-linejoin="round"/>
</svg>
