<svg width="94" height="95" viewBox="0 0 94 95" fill="none" xmlns="http://www.w3.org/2000/svg">
<path d="M75.8461 62.2999L59.7701 46.2239L72.254 37.3624L88.3299 53.4383L75.8461 62.2999Z" fill="#FFCE51"/>
<path d="M59.7719 46.2202L50.7992 45.3024L63.2849 36.4427L72.2557 37.3605L59.7719 46.2183V46.2202Z" fill="#FFCE51"/>
<path d="M40.4243 18.1693L5.40967 15.7249L17.8954 6.86151L52.9081 9.31153L40.4243 18.1693Z" fill="#FFCE51"/>
<path d="M32.0491 26.5503L40.4282 18.1712L43.1119 16.2677L44.5329 17.6906L63.2869 36.4446L50.8031 45.3043L32.0491 26.5522V26.5503Z" fill="#FFCE51"/>
<path d="M5.40967 15.7231L40.4243 18.1693L32.0452 26.5503L50.7973 45.3024L59.7719 46.2202L75.8478 62.2961L58.7316 69.0431L51.9846 86.1612L35.9087 70.0853L34.9909 61.1107L16.2369 42.3586L7.85781 50.7358L5.40967 15.7231Z" fill="#89DCFF"/>
<path d="M69.3742 64.846L58.726 69.0431L51.979 86.1593L64.4647 77.2997L69.3723 64.846H69.3742Z" fill="#F11F9D"/>
<path d="M5.40967 15.7231L40.4243 18.1693L32.0452 26.5503L50.7973 45.3024L59.7719 46.2202L75.8478 62.2961L58.7316 69.0431L51.9846 86.1612L35.9087 70.0853L34.9909 61.1107L16.2369 42.3586L7.85781 50.7358L5.40967 15.7231Z" stroke="black" stroke-width="3.28102" stroke-linejoin="round"/>
<path d="M69.3742 64.846L58.726 69.0431L51.979 86.1593L64.4647 77.2997L69.3723 64.846H69.3742Z" stroke="black" stroke-width="3.28102" stroke-linejoin="round"/>
<path d="M75.8461 62.2999L59.7701 46.2239L72.254 37.3624L88.3299 53.4383L75.8461 62.2999Z" stroke="black" stroke-width="3.28102" stroke-linejoin="round"/>
<path d="M59.7719 46.2202L50.7992 45.3024L63.2849 36.4427L72.2557 37.3605L59.7719 46.2183V46.2202Z" stroke="black" stroke-width="3.28102" stroke-linejoin="round"/>
<path d="M40.4243 18.1693L5.40967 15.7249L17.8954 6.86151L52.9081 9.31153L40.4243 18.1693Z" stroke="black" stroke-width="3.28102" stroke-linejoin="round"/>
<path d="M32.0491 26.5503L40.4282 18.1712L43.1119 16.2677L44.5329 17.6906L63.2869 36.4446L50.8031 45.3043L32.0491 26.5522V26.5503Z" stroke="black" stroke-width="3.28102" stroke-linejoin="round"/>
</svg>
