<svg width="145" height="146" viewBox="0 0 145 146" fill="none" xmlns="http://www.w3.org/2000/svg">
<path d="M20.8457 55.528L63.2795 14.4997L105.71 55.528L81.825 59.4623L105.71 85.0355L83.7921 86.4381L112.738 116.225H73.9563V136.741H52.5997V116.225H13.8238L42.7668 86.4381L20.8486 85.0355L44.734 59.4623L20.8486 55.528H20.8457Z" fill="#94E986"/>
<path d="M83.7863 86.4352L105.705 85.0296L106.033 84.7968L130.934 110.422L112.729 116.222L83.7863 86.4352Z" fill="#FFCE51"/>
<path d="M81.8308 59.4594L102.303 56.0867L123.921 79.23L106.048 84.7968L105.716 85.0296L81.8308 59.4594Z" fill="#FFCE51"/>
<path d="M81.4816 8.69714L63.2795 14.4968L105.713 55.525L123.915 49.7254L81.4845 8.69714H81.4816Z" fill="#FFCE51"/>
<path d="M92.1701 116.222H73.965V136.738L92.1701 130.938V116.222Z" fill="#FFCE51"/>
<path d="M20.8457 55.528L63.2795 14.4997L105.71 55.528L81.825 59.4623L105.71 85.0355L83.7921 86.4381L112.738 116.225H73.9563V136.741H52.5997V116.225H13.8238L42.7668 86.4381L20.8486 85.0355L44.734 59.4623L20.8486 55.528H20.8457Z" stroke="black" stroke-width="5.06613" stroke-linecap="square" stroke-linejoin="round"/>
<path d="M83.7863 86.4352L105.705 85.0296L106.033 84.7968L130.934 110.422L112.729 116.222L83.7863 86.4352Z" stroke="black" stroke-width="5.06613" stroke-linecap="square" stroke-linejoin="round"/>
<path d="M81.8308 59.4594L102.303 56.0867L123.921 79.23L106.048 84.7968L105.716 85.0296L81.8308 59.4594Z" stroke="black" stroke-width="5.06613" stroke-linecap="square" stroke-linejoin="round"/>
<path d="M81.4816 8.69714L63.2795 14.4968L105.713 55.525L123.915 49.7254L81.4845 8.69714H81.4816Z" stroke="black" stroke-width="5.06613" stroke-linecap="square" stroke-linejoin="round"/>
<path d="M92.1701 116.222H73.965V136.738L92.1701 130.938V116.222Z" stroke="black" stroke-width="5.06613" stroke-linecap="square" stroke-linejoin="round"/>
</svg>
