<svg width="330" height="348" viewBox="0 0 330 348" fill="none" xmlns="http://www.w3.org/2000/svg">
<path d="M7 149.922L62.4045 7H216.506L161.102 149.922H243.632L46.2455 340.488L69.3319 149.922H7Z" fill="#94E986"/>
<path d="M7 149.922L62.4045 7H216.506L161.102 149.922H243.632L46.2455 340.488L69.3319 149.922H7Z" stroke="black" stroke-width="13.195" stroke-linejoin="round"/>
<path d="M243.64 149.915L46.2532 340.488H125.904L323.291 149.922H243.64V149.915Z" fill="#FFCE51"/>
<path d="M216.491 7L161.087 149.922H240.73L296.134 7H216.499H216.491Z" fill="#FFCE51"/>
<path d="M243.64 149.915L46.2532 340.488H125.904L323.291 149.922H243.64V149.915Z" stroke="black" stroke-width="13.195" stroke-linejoin="round"/>
<path d="M216.491 7L161.087 149.922H240.73L296.134 7H216.499H216.491Z" stroke="black" stroke-width="13.195" stroke-linejoin="round"/>
</svg>
