<svg width="204" height="173" viewBox="0 0 204 173" fill="none" xmlns="http://www.w3.org/2000/svg">
<path d="M85.9582 4L115.846 49.0438L167.921 63.548L134.315 105.89L136.616 159.897L85.9582 141.022L35.3051 159.897L37.6017 105.89L4 63.548L56.0749 49.0438L85.9582 4Z" fill="#FFCE51"/>
<path d="M85.9582 4L115.846 49.0438L167.921 63.548L134.315 105.89L136.616 159.897L85.9582 141.022L35.3051 159.897L37.6017 105.89L4 63.548L56.0749 49.0438L85.9582 4Z" stroke="black" stroke-width="7" stroke-linejoin="round"/>
<path d="M167.834 63.6573L134.31 105.89L136.611 159.897L168.969 169.042L166.672 115.035L200.279 72.6934L167.916 63.5434L167.83 63.6528L167.834 63.6573Z" stroke="black" stroke-width="7" stroke-linejoin="round"/>
<path d="M135.408 131.877L167.766 141.022" stroke="black" stroke-width="7" stroke-linejoin="round"/>
<path d="M150.482 85.4251L182.917 94.5933" stroke="black" stroke-width="7" stroke-linejoin="round"/>
<path d="M134.297 106.878L166.672 116.028" stroke="black" stroke-width="7" stroke-linejoin="round"/>
<path d="M114.406 151.626L85.9537 141.022L35.3005 159.897L67.6628 169.042L114.406 151.626Z" stroke="black" stroke-width="7" stroke-linejoin="round"/>
<path d="M115.842 49.0438L85.9582 4L118.32 13.1455L148.099 58.0297L115.846 49.0438H115.842Z" stroke="black" stroke-width="7" stroke-linejoin="round"/>
<path d="M102.226 28.3104L134.515 37.4331" stroke="black" stroke-width="7" stroke-linejoin="round"/>
<path d="M74.8579 119.938C74.8579 118.035 74.1018 116.209 72.7559 114.863C71.4099 113.517 69.5844 112.761 67.681 112.761C65.7776 112.761 63.9521 113.517 62.6061 114.863C61.2602 116.209 60.5041 118.035 60.5041 119.938" stroke="black" stroke-width="7" stroke-linecap="round" stroke-linejoin="round"/>
<path d="M121.592 86.1222C121.592 84.2188 120.836 82.3933 119.49 81.0474C118.144 79.7014 116.319 78.9453 114.415 78.9453C112.512 78.9453 110.686 79.7014 109.34 81.0474C107.995 82.3933 107.238 84.2188 107.238 86.1222" stroke="black" stroke-width="7" stroke-linecap="round" stroke-linejoin="round"/>
<path d="M111.763 119.938C111.763 118.035 111.007 116.209 109.661 114.863C108.315 113.517 106.49 112.761 104.586 112.761C102.683 112.761 100.857 113.517 99.5115 114.863C98.1656 116.209 97.4094 118.035 97.4094 119.938" stroke="black" stroke-width="7" stroke-linecap="round" stroke-linejoin="round"/>
<path d="M64.9788 86.1222C64.9788 84.2188 64.2227 82.3933 62.8768 81.0474C61.5308 79.7014 59.7054 78.9453 57.8019 78.9453C55.8985 78.9453 54.073 79.7014 52.7271 81.0474C51.3811 82.3933 50.625 84.2188 50.625 86.1222" stroke="black" stroke-width="7" stroke-linecap="round" stroke-linejoin="round"/>
<path d="M93.1261 67.2436C93.1261 65.3401 92.3699 63.5147 91.024 62.1687C89.678 60.8228 87.8526 60.0667 85.9491 60.0667C84.0457 60.0667 82.2202 60.8228 80.8743 62.1687C79.5283 63.5147 78.7722 65.3401 78.7722 67.2436" stroke="black" stroke-width="7" stroke-linecap="round" stroke-linejoin="round"/>
<path d="M92.8891 97.3547C92.8891 95.4513 92.133 93.6258 90.787 92.2799C89.4411 90.9339 87.6156 90.1778 85.7122 90.1778C83.8087 90.1778 81.9833 90.9339 80.6373 92.2799C79.2914 93.6258 78.5352 95.4513 78.5352 97.3547" stroke="black" stroke-width="7" stroke-linecap="round" stroke-linejoin="round"/>
</svg>
