<svg width="165" height="62" viewBox="0 0 165 62" fill="none" xmlns="http://www.w3.org/2000/svg">
<path d="M13.0172 18.5433C12.6979 18.5433 12.6181 18.3837 12.7778 18.1442L14.4538 15.9894C14.6134 15.75 15.0124 15.5903 15.3317 15.5903H43.8236C44.1429 15.5903 44.2227 15.8298 44.063 16.0692L42.7063 18.1442C42.5467 18.3837 42.1476 18.6231 41.9082 18.6231L13.0172 18.5433Z" fill="#2DBCAF"/>
<path d="M0.966022 25.8856C0.646784 25.8856 0.566974 25.726 0.726593 25.4865L2.40259 23.3317C2.56221 23.0922 2.96126 22.9326 3.28049 22.9326H39.6736C39.9928 22.9326 40.1524 23.172 40.0726 23.4115L39.4342 25.3269C39.3544 25.6461 39.0351 25.8058 38.7159 25.8058L0.966022 25.8856Z" fill="#2DBCAF"/>
<path d="M20.2799 33.2283C19.9606 33.2283 19.8808 32.9889 20.0405 32.7495L21.1578 30.7542C21.3174 30.5148 21.6366 30.2754 21.9559 30.2754H37.9178C38.237 30.2754 38.3966 30.5148 38.3966 30.8341L38.237 32.7495C38.237 33.0687 37.9178 33.3081 37.6783 33.3081L20.2799 33.2283Z" fill="#2DBCAF"/>
<path d="M103.122 17.1066C98.094 18.3836 94.6622 19.3413 89.7141 20.6182C88.5169 20.9375 88.4371 21.0173 87.3996 19.8201C86.2024 18.4634 85.3245 17.5855 83.6485 16.7874C78.6205 14.3133 73.7522 15.0316 69.203 17.9845C63.776 21.4961 60.9827 26.6837 61.0625 33.1483C61.1423 39.5331 65.5318 44.8005 71.8367 45.6784C77.2638 46.3967 81.8129 44.4812 85.4043 40.411C86.1226 39.5331 86.7611 38.5753 87.5592 37.458C84.6861 37.458 81.0946 37.458 72.156 37.458C70.48 37.458 70.0809 36.4205 70.6396 35.0637C71.6771 32.5896 73.5925 28.4396 74.7099 26.3645C74.9493 25.8857 75.508 25.0876 76.7051 25.0876C80.7754 25.0876 95.7796 25.0876 105.756 25.0876C105.596 27.2424 105.596 29.3973 105.277 31.5521C104.399 37.2984 102.244 42.5658 98.7325 47.1948C92.9862 54.7767 85.4841 59.4854 75.9868 60.7624C68.1655 61.7999 60.9028 60.2835 54.5181 55.4949C48.6122 51.0256 45.2602 45.1197 44.3823 37.7772C43.3448 29.078 45.8987 21.2567 51.1661 14.3931C56.8326 6.97082 64.3347 2.26206 73.5127 0.586062C81.0148 -0.770698 88.1977 0.107206 94.6622 4.49672C98.8921 7.29005 101.925 11.1209 103.92 15.7499C104.399 16.4681 104.08 16.8672 103.122 17.1066Z" fill="#2DBCAF"/>
<path d="M129.539 61.2412C122.276 61.0816 115.652 59.0065 110.065 54.218C105.357 50.1477 102.404 44.9601 101.446 38.8148C100.009 29.7963 102.484 21.8154 107.911 14.7123C113.737 7.05062 120.76 3.06015 130.257 1.38415C138.398 -0.0524216 146.06 0.745671 153.003 5.45443C159.308 9.76414 163.219 15.5902 164.256 23.2519C165.613 34.0262 162.5 42.8052 155.078 50.3073C149.811 55.6545 143.346 59.0065 135.924 60.5229C133.769 60.922 131.614 61.0018 129.539 61.2412ZM148.534 28.9982C148.454 27.9607 148.454 27.1626 148.294 26.3645C146.858 18.4634 139.595 13.994 132.013 15.7498C124.591 17.4258 119.802 22.1346 118.046 29.6367C116.61 35.8618 119.643 42.1668 125.389 44.7207C129.778 46.6361 134.168 46.3967 138.398 44.2418C144.703 40.9696 148.135 35.8618 148.534 28.9982Z" fill="#2DBCAF"/>
</svg>
