<svg width="200" height="196" viewBox="0 0 200 196" fill="none" xmlns="http://www.w3.org/2000/svg">
<g clip-path="url(#clip0_1302_2)">
<path d="M35.4167 -0.499943H164.583H179H200V21.9186C200 21.9186 200.004 31.0533 200 35.8248V163.175C200.004 167.947 200 177.081 200 177.081V198H191C191 198 168.652 198.004 164 198H35.5H22.5H-6.8174e-06V177.5V163.175V35.8248C-0.00439157 31.0533 2.71923e-06 21.9186 2.71923e-06 21.9186L2.76347e-06 -0.499943L21.8581 -0.499988C21.8581 -0.499988 30.7644 -0.50444 35.4167 -0.499943Z" fill="#F7DF1E"/>
<path d="M134.689 153.362C138.717 159.808 143.959 164.547 153.229 164.547C161.016 164.547 165.99 160.732 165.99 155.462C165.99 149.147 160.879 146.91 152.308 143.236L147.61 141.26C134.048 135.598 125.038 128.504 125.038 113.509C125.038 99.6956 135.778 89.1801 152.562 89.1801C164.511 89.1801 173.102 93.2556 179.292 103.927L164.657 113.136C161.435 107.473 157.959 105.243 152.562 105.243C147.057 105.243 143.568 108.665 143.568 113.136C143.568 118.661 147.06 120.898 155.124 124.32L159.822 126.292C175.79 133.003 184.806 139.844 184.806 155.226C184.806 171.808 171.514 180.892 153.663 180.892C136.21 180.892 124.933 172.741 119.416 162.058L134.689 153.362ZM68.2984 154.958C71.2508 160.092 73.9365 164.432 80.3936 164.432C86.5683 164.432 90.4635 162.064 90.4635 152.858V90.2316H109.257V153.107C109.257 172.178 97.8476 180.858 81.1937 180.858C66.146 180.858 57.4317 173.227 53 164.035L68.2984 154.958Z" fill="black"/>
</g>
<defs>
<clipPath id="clip0_1302_2">
<rect width="200" height="196" fill="white"/>
</clipPath>
</defs>
</svg>
