<svg width="161" height="80" viewBox="0 0 161 80" fill="none" xmlns="http://www.w3.org/2000/svg">
<path d="M28.1799 50.6848C33.0429 50.6848 36.6732 49.788 38.9703 48.0202C41.2427 46.2705 42.8122 43.2391 43.6349 39.0106C44.4019 35.0582 44.1097 32.2984 42.7667 30.8091C41.3935 29.2879 38.4245 28.5165 33.9425 28.5165H26.1711L21.8628 50.6848H28.1799ZM2.76171 77.9922C2.40097 77.9922 2.05837 77.831 1.82903 77.552C1.59928 77.2735 1.50617 76.9067 1.5751 76.5525L12.993 17.8059C13.1034 17.238 13.6012 16.8277 14.18 16.8277H38.7885C46.5224 16.8277 52.2789 18.9277 55.8972 23.0699C59.5348 27.2339 60.6582 33.0545 59.2358 40.3697C58.657 43.3499 57.6614 46.1177 56.2769 48.5958C54.8908 51.0766 53.0588 53.372 50.8311 55.4196C48.1645 57.9153 45.1464 59.7251 41.8687 60.79C38.643 61.8407 34.5003 62.3736 29.556 62.3736H19.5915L16.7459 77.0136C16.6355 77.5819 16.1381 77.9922 15.5593 77.9922H2.76171Z" fill="black"/>
<path d="M27.1679 29.7257H33.9426C39.3521 29.7257 41.2311 30.9127 41.8696 31.6201C42.9288 32.7946 43.1287 35.271 42.448 38.7813C41.683 42.7111 40.265 45.4975 38.2328 47.0622C36.1522 48.6639 32.7697 49.4757 28.18 49.4757H23.3296L27.1679 29.7257ZM38.7886 15.6186H14.1797C13.0221 15.6186 12.027 16.4392 11.8061 17.5754L0.388171 76.322C0.250325 77.0309 0.43654 77.7641 0.895626 78.3215C1.35512 78.879 2.03951 79.2014 2.7618 79.2014H15.559C16.717 79.2014 17.7121 78.3808 17.933 77.2446L20.5884 63.5828H29.5561C34.6274 63.5828 38.8966 63.0298 42.244 61.9395C45.6866 60.821 48.8538 58.9246 51.6571 56.3031C53.9755 54.1701 55.8852 51.776 57.3322 49.1863C58.7796 46.5958 59.8195 43.7071 60.4229 40.6003C61.9202 32.9002 60.7038 26.7342 56.8078 22.2747C52.9497 17.858 46.8869 15.6186 38.7886 15.6186ZM20.3957 51.894H28.18C33.3396 51.894 37.1828 50.9223 39.708 48.9783C42.2335 47.0339 43.9369 43.7889 44.822 39.2416C45.6688 34.8756 45.2831 31.7946 43.6648 29.9998C42.0445 28.205 38.8043 27.3073 33.9426 27.3073H25.1744L20.3957 51.894ZM38.7886 18.0369C46.1916 18.0369 51.5922 19.9797 54.9868 23.8656C58.381 27.7515 59.4031 33.1755 58.0488 40.1392C57.4914 43.0078 56.5486 45.6305 55.2214 48.0065C53.8925 50.3842 52.1573 52.5583 50.013 54.5297C47.4576 56.921 44.6189 58.6252 41.4951 59.6401C38.3714 60.6578 34.3928 61.1644 29.5561 61.1644H18.5944L15.559 76.7831H2.7618L14.1797 18.0369H38.7886Z" fill="white"/>
<path d="M88.578 62.3738C88.2169 62.3738 87.8747 62.2126 87.6454 61.9336C87.4152 61.6551 87.3221 61.2887 87.391 60.934L92.4418 34.9411C92.9222 32.4691 92.8037 30.6948 92.1085 29.9451C91.6828 29.4868 90.4043 28.7182 86.624 28.7182H77.4737L71.1235 61.3951C71.0131 61.9635 70.5153 62.3738 69.9365 62.3738H57.2401C56.8789 62.3738 56.5367 62.2126 56.307 61.9336C56.0772 61.6551 55.9841 61.2883 56.0531 60.934L67.471 2.18754C67.5814 1.61963 68.0792 1.20931 68.658 1.20931H81.3544C81.7155 1.20931 82.0577 1.37053 82.2875 1.64905C82.5172 1.92797 82.6103 2.29435 82.5414 2.64904L79.7861 16.8279H89.6296C97.1286 16.8279 102.214 18.15 105.175 20.8698C108.194 23.6445 109.136 28.081 107.975 34.0576L102.663 61.3951C102.553 61.9635 102.055 62.3738 101.476 62.3738H88.578Z" fill="black"/>
<path d="M81.3544 -0.00031662H68.658C67.5 -0.00031662 66.5049 0.820312 66.284 1.95654L54.8661 60.7031C54.7282 61.412 54.9144 62.1452 55.3739 62.7026C55.8334 63.2601 56.5178 63.5825 57.2401 63.5825H69.9365C71.0941 63.5825 72.0897 62.7619 72.3105 61.6257L78.4705 29.9269H86.624C90.3979 29.9269 91.1899 30.7331 91.2217 30.7677C91.4507 31.014 91.7518 32.1547 91.2548 34.7101L86.204 60.7031C86.0662 61.412 86.2524 62.1452 86.7119 62.7026C87.1714 63.2601 87.8558 63.5825 88.5781 63.5825H101.476C102.634 63.5825 103.629 62.7619 103.85 61.6257L109.162 34.2881C110.409 27.8709 109.342 23.0572 105.994 19.9794C102.798 17.0447 97.4454 15.6183 89.6297 15.6183H81.2524L83.7284 2.87955C83.8659 2.17057 83.6801 1.437 83.2206 0.879971C82.7611 0.322536 82.0767 -0.00031662 81.3544 -0.00031662ZM81.3544 2.41805L78.319 18.0367H89.6297C96.7465 18.0367 101.655 19.2789 104.357 21.7601C107.059 24.243 107.868 28.2659 106.788 33.827L101.476 61.1642H88.5781L93.6288 35.1716C94.2036 32.2147 93.9924 30.1978 92.9944 29.1224C91.996 28.0471 89.8723 27.5086 86.624 27.5086H76.4766L69.9365 61.1642H57.2401L68.658 2.41805H81.3544Z" fill="white"/>
<path d="M128.065 50.6848C132.928 50.6848 136.558 49.788 138.855 48.0202C141.127 46.2709 142.697 43.2395 143.52 39.0106C144.287 35.0582 143.995 32.2984 142.651 30.8091C141.278 29.2879 138.309 28.5165 133.827 28.5165H126.056L121.747 50.6848H128.065ZM102.647 77.9922C102.286 77.9922 101.943 77.831 101.714 77.552C101.484 77.2735 101.391 76.9067 101.46 76.5525L112.878 17.8059C112.988 17.238 113.486 16.8277 114.065 16.8277H138.673C146.407 16.8277 152.164 18.9277 155.782 23.0699C159.42 27.2335 160.543 33.0541 159.121 40.3697C158.541 43.3499 157.546 46.1177 156.162 48.5958C154.775 51.0766 152.944 53.372 150.716 55.4196C148.049 57.9153 145.031 59.7251 141.753 60.79C138.528 61.8407 134.385 62.3736 129.441 62.3736H119.476L116.631 77.0136C116.521 77.5819 116.023 77.9922 115.444 77.9922H102.647Z" fill="black"/>
<path d="M127.053 29.7257H133.827C139.237 29.7257 141.116 30.9127 141.754 31.6201C142.814 32.7946 143.014 35.271 142.333 38.7809C141.568 42.7111 140.149 45.4975 138.117 47.0622C136.037 48.6639 132.654 49.4757 128.065 49.4757H123.215L127.053 29.7257ZM138.673 15.6186H114.065C112.907 15.6186 111.912 16.4392 111.691 17.5754L100.273 76.322C100.135 77.0309 100.322 77.7641 100.781 78.3215C101.24 78.879 101.925 79.2014 102.647 79.2014H115.444C116.602 79.2014 117.597 78.3808 117.818 77.2446L120.473 63.5828H129.441C134.512 63.5828 138.781 63.0298 142.129 61.9395C145.571 60.821 148.739 58.9242 151.543 56.3023C153.861 54.1697 155.77 51.776 157.217 49.1863C158.664 46.5958 159.704 43.7071 160.308 40.6003C161.805 32.8998 160.588 26.7338 156.692 22.2743C152.834 17.858 146.772 15.6186 138.673 15.6186ZM120.281 51.894H128.065C133.224 51.894 137.067 50.9223 139.593 48.9783C142.119 47.0339 143.822 43.7889 144.707 39.2416C145.554 34.8756 145.168 31.7946 143.549 29.9998C141.929 28.205 138.689 27.3073 133.827 27.3073H125.059L120.281 51.894ZM138.673 18.0369C146.076 18.0369 151.477 19.9797 154.871 23.8656C158.266 27.7515 159.288 33.1755 157.934 40.1392C157.376 43.0078 156.433 45.6305 155.106 48.0065C153.777 50.3842 152.042 52.5583 149.898 54.5297C147.342 56.921 144.504 58.6252 141.38 59.6401C138.256 60.6578 134.277 61.1644 129.441 61.1644H118.479L115.444 76.7831H102.647L114.065 18.0369H138.673Z" fill="white"/>
</svg>
